PathFileType	4	(X/Y/Z)	/Users/itak/Documents/Research/Walk-IL/dataset/trc/00185_00008.trc
DataRate	CameraRate	NumFrames	NumMarkers	Units	OrigDataRate	OrigDataStartFrame	OrigNumFrames
100.000000	100.000000	4	53	mm	100.000000	297	793
Frame#	Time	RPSI			LPSI			L3			STRN			T10			C7			CLAV			RBAK			LBAK			LSHO			LUPA			LAEL			LAOL			LWTS			LWPS			LFRA			LIFD			LHPS			LHTS			RSHO			RUPA			RAEL			RAOL			RWTS			RWPS			RFRA			RIFD			RHTS			RHPS			RBHD			LFHD			RFHD			LBHD			LHIP			RHIP			RASI			LASI			LKNE			LTHI			LANK			LTIP			LTOE			LMT1			LMT5			LHEE			RKNE			RTHI			RANK			RTIP			RTOE			RMT1			RMT5			RHEE			
		X1	Y1	Z1	X2	Y2	Z2	X3	Y3	Z3	X4	Y4	Z4	X5	Y5	Z5	X6	Y6	Z6	X7	Y7	Z7	X8	Y8	Z8	X9	Y9	Z9	X10	Y10	Z10	X11	Y11	Z11	X12	Y12	Z12	X13	Y13	Z13	X14	Y14	Z14	X15	Y15	Z15	X16	Y16	Z16	X17	Y17	Z17	X18	Y18	Z18	X19	Y19	Z19	X20	Y20	Z20	X21	Y21	Z21	X22	Y22	Z22	X23	Y23	Z23	X24	Y24	Z24	X25	Y25	Z25	X26	Y26	Z26	X27	Y27	Z27	X28	Y28	Z28	X29	Y29	Z29	X30	Y30	Z30	X31	Y31	Z31	X32	Y32	Z32	X33	Y33	Z33	X34	Y34	Z34	X35	Y35	Z35	X36	Y36	Z36	X37	Y37	Z37	X38	Y38	Z38	X39	Y39	Z39	X40	Y40	Z40	X41	Y41	Z41	X42	Y42	Z42	X43	Y43	Z43	X44	Y44	Z44	X45	Y45	Z45	X46	Y46	Z46	X47	Y47	Z47	X48	Y48	Z48	X49	Y49	Z49	X50	Y50	Z50	X51	Y51	Z51	X52	Y52	Z52	X53	Y53	Z53	

298	2.97	974.446533203125	1042.462890625	-27.85688209533691	859.0184936523438	1037.618408203125	14.75976181030273	915.4871215820312	1077.962280273438	-5.206855297088623	812.9757080078125	1290.515380859375	-246.6632385253906	902.9398193359375	1238.002319335938	40.10887908935547	848.6817626953125	1503.884765625	-16.73302268981934	803.0563354492188	1403.721069335938	-215.2969512939453	986.766357421875	1340.070434570312	14.68514156341553	756.949462890625	1472.260009765625	18.21964645385742	664.3171997070312	1456.106689453125	-34.99458694458008	605.463134765625	1322.35888671875	11.46599578857422	578.1658325195312	1106.99462890625	-10.34868335723877	660.6494140625	1085.7958984375	12.69216918945312	561.5202026367188	902.2940673828125	-168.23583984375	550.5237426757812	863.34423828125	-83.7598876953125	556.37353515625	997.852783203125	-37.32678985595703	566.6201782226562	725.4786987304688	-228.3205261230469	542.8489379882812	800.5390625	-119.5485534667969	533.36181640625	827.1271362304688	-187.8602600097656	1004.814147949219	1499.318359375	-129.2298278808594	1080.969482421875	1440.22705078125	-129.5025634765625	1167.087280273438	1158.889282226562	-136.5491790771484	1076.0966796875	1143.263061523438	-106.3765411376953	1117.066162109375	948.0372924804688	-296.1388549804688	1183.4736328125	925.5364379882812	-242.0668029785156	1181.63134765625	1089.198608398438	-174.3259429931641	1090.198120117188	765.63818359375	-329.208740234375	1117.748291015625	858.6358642578125	-337.2369995117188	1172.978393554688	846.4122314453125	-280.0865783691406	890.4785766601562	1663.622314453125	-99.06440734863281	697.2091064453125	1711.353149414062	-190.6493682861328	815.7511596679688	1727.743041992188	-243.9446563720703	769.9905395507812	1652.48486328125	-34.40190124511719	719.211669921875	971.5641479492188	-45.8824462890625	1042.573852539062	1012.317504882812	-219.3573455810547	960.6618041992188	1042.189453125	-270.9307250976562	720.4185791015625	1014.720947265625	-181.3453979492188	812.6007080078125	480.7799072265625	-157.6732482910156	766.482666015625	618.0110473632812	-124.7784881591797	931.7471923828125	33.81174850463867	-139.9668426513672	859.612548828125	253.6497650146484	-150.6714019775391	846.1947021484375	39.10145950317383	-342.5080871582031	915.0446166992188	37.89445877075195	-324.6698913574219	846.6909790039062	33.92446899414062	-216.9382934570312	1015.771911621094	37.92472457885742	-127.2236251831055	1002.609680175781	535.5032348632812	-387.4744567871094	1027.8349609375	805.3278198242188	-330.9590759277344	1138.240844726562	124.0129470825195	-129.1377563476562	1014.2236328125	413.9239501953125	-362.2835998535156	1083.217041015625	56.174072265625	-328.1686706542969	1041.952758789062	65.76564025878906	-274.2187805175781	1158.838623046875	78.47472381591797	-231.8403167724609	1075.834350585938	139.4830932617188	-75.40878295898438	
299	2.98	972.4877319335938	1042.504150390625	-36.32035446166992	857.843505859375	1037.185302734375	8.543092727661133	913.68701171875	1077.638916015625	-12.52369022369385	806.6943969726562	1289.633666992188	-252.6183929443359	901.083740234375	1237.859741210938	32.84771347045898	845.7494506835938	1503.667114257812	-23.84210968017578	797.3236083984375	1402.93994140625	-221.3932647705078	984.128662109375	1339.849609375	5.967263698577881	754.2431030273438	1472.002075195312	12.52698516845703	661.085693359375	1455.6884765625	-39.32281112670898	602.5208740234375	1321.852172851562	7.209201335906982	573.6683349609375	1106.7021484375	-16.70680618286133	656.1998901367188	1084.77783203125	5.46297550201416	554.5962524414062	904.991943359375	-178.0330505371094	544.428466796875	864.361083984375	-94.21158599853516	551.1409912109375	998.0642700195312	-45.23850631713867	558.2401733398438	729.5936889648438	-241.9140319824219	536.183349609375	802.3397827148438	-131.4309844970703	525.8322143554688	830.4114379882812	-198.8017425537109	1000.262268066406	1498.6064453125	-138.477783203125	1076.435546875	1439.646606445312	-139.6565704345703	1163.388061523438	1158.620361328125	-147.1606140136719	1072.866577148438	1142.832763671875	-115.4939193725586	1111.489624023438	947.6774291992188	-306.0091552734375	1178.596313476562	925.1265869140625	-252.7870178222656	1177.5234375	1088.89501953125	-185.0783538818359	1084.369140625	765.4615478515625	-339.0791931152344	1111.744995117188	858.3800048828125	-347.2283325195312	1167.700073242188	846.078125	-290.7812805175781	886.60546875	1663.020629882812	-106.6403961181641	692.613037109375	1711.037841796875	-196.6327667236328	810.722900390625	1726.808349609375	-251.0098419189453	766.6771240234375	1652.480102539062	-40.79679489135742	717.1180419921875	970.9407348632812	-49.43296813964844	1036.7919921875	1012.327819824219	-229.4999084472656	953.6502075195312	1041.940673828125	-279.0932006835938	715.1654052734375	1013.989440917969	-185.0271606445312	811.3943481445312	480.2718200683594	-158.5498352050781	764.773193359375	617.57275390625	-126.6990585327148	931.7739868164062	33.82540893554688	-139.9715881347656	859.2310180664062	253.5691528320312	-150.8577880859375	846.0653076171875	38.74510955810547	-342.5597839355469	914.9961547851562	37.71725082397461	-324.74658203125	846.64013671875	33.77408599853516	-216.8358154296875	1015.958618164062	38.23685073852539	-127.1510925292969	988.2422485351562	537.3427124023438	-400.9266052246094	1017.857604980469	806.281982421875	-342.8108215332031	1127.324096679688	114.2193908691406	-163.6961975097656	999.2127685546875	414.4065551757812	-379.580078125	1064.378662109375	56.66544342041016	-363.7278747558594	1024.985961914062	63.73894500732422	-307.69091796875	1143.600952148438	73.55282592773438	-269.1810607910156	1067.23779296875	128.0023040771484	-106.8992614746094	
300	2.99	970.4737548828125	1042.441528320312	-44.7458610534668	856.6598510742188	1036.633178710938	2.315048933029175	911.8701782226562	1077.20654296875	-19.83999824523926	800.3976440429688	1288.617553710938	-258.495361328125	899.2371215820312	1237.6181640625	25.58775901794434	842.7737426757812	1503.32666015625	-30.93977546691895	791.544921875	1402.03955078125	-227.4290771484375	981.4669189453125	1339.556762695312	-2.783414363861084	751.5450439453125	1471.605834960938	6.86302661895752	657.8399658203125	1455.145874023438	-43.64102554321289	599.60107421875	1321.211547851562	2.935932397842407	569.275634765625	1106.304809570312	-23.04116821289062	651.8390502929688	1083.687866210938	-1.706338047981262	547.876708984375	907.53076171875	-187.6007080078125	538.4127197265625	865.3153686523438	-104.4424591064453	546.0201416015625	998.1881103515625	-53.05353164672852	550.1135864257812	733.5274658203125	-255.0267944335938	529.6217041015625	804.06298828125	-142.9636535644531	518.5348510742188	833.5276489257812	-209.4578399658203	995.6024780273438	1497.795288085938	-147.7248992919922	1071.780517578125	1438.975463867188	-149.8582305908203	1159.549682617188	1158.283203125	-157.9444885253906	1069.507202148438	1142.283813476562	-124.8067626953125	1105.909423828125	947.08056640625	-315.8307800292969	1173.788208007812	924.6419067382812	-263.5162048339844	1173.31591796875	1088.543579101562	-195.96826171875	1078.792236328125	764.97412109375	-348.6644897460938	1105.818359375	857.8362426757812	-357.0770263671875	1162.572143554688	845.6076049804688	-301.381103515625	882.7003173828125	1662.294555664062	-114.2410888671875	687.9598388671875	1710.594604492188	-202.5182189941406	805.5574340820312	1725.728271484375	-258.0187377929688	763.3720092773438	1652.357177734375	-47.14941787719727	714.9971923828125	970.2781982421875	-53.06978225708008	1030.921508789062	1012.178833007812	-239.5131988525391	946.666015625	1041.642700195312	-287.1885375976562	709.9356079101562	1013.232849121094	-188.7305297851562	810.152587890625	479.7684020996094	-159.5777130126953	763.0048828125	617.14306640625	-128.7143096923828	931.8029174804688	33.84318923950195	-139.9763488769531	858.7957153320312	253.5091552734375	-151.1163482666016	845.970703125	38.45600128173828	-342.5852355957031	914.9750366210938	37.57756423950195	-324.8105163574219	846.5880737304688	33.61588287353516	-216.7289123535156	1016.040100097656	38.41813278198242	-127.2386093139648	973.7993774414062	538.965576171875	-413.5914001464844	1007.699462890625	807.004638671875	-354.2701110839844	1115.109985351562	104.7242736816406	-198.4399719238281	983.9374389648438	414.934326171875	-396.2532958984375	1044.089965820312	57.57255554199219	-398.5879821777344	1006.670654296875	62.2308349609375	-340.6808776855469	1126.865112304688	69.03121185302734	-306.3218688964844	1057.477783203125	116.7152404785156	-138.6877899169922	
301	3	968.3839721679688	1042.235229492188	-53.12029266357422	855.4356689453125	1035.9521484375	-3.943732738494873	910.0278930664062	1076.656860351562	-27.15666961669922	794.095947265625	1287.488037109375	-264.3036499023438	897.3860473632812	1237.275756835938	18.32005310058594	839.7311401367188	1502.843994140625	-38.00456619262695	785.7297973632812	1401.040161132812	-233.4059906005859	978.7932739257812	1339.198608398438	-11.55706596374512	748.8560791015625	1471.076171875	1.229919195175171	654.5823364257812	1454.4912109375	-47.95378875732422	596.6962890625	1320.455322265625	-1.348548889160156	564.9925537109375	1105.814086914062	-29.3418140411377	647.5785522460938	1082.540893554688	-8.803702354431152	541.375244140625	909.9012451171875	-196.9279022216797	532.4805908203125	866.2103881835938	-114.4240036010742	541.014892578125	998.23193359375	-60.76591491699219	542.2359008789062	737.2567138671875	-267.6417541503906	523.1576538085938	805.7041015625	-154.1197204589844	511.4770812988281	836.4698486328125	-219.8212127685547	990.8284912109375	1496.902465820312	-156.9424896240234	1067.003540039062	1438.232666015625	-160.0832214355469	1155.542602539062	1157.885009765625	-168.8813781738281	1065.97802734375	1141.615844726562	-134.3481903076172	1100.336303710938	946.259765625	-325.6040954589844	1169.038696289062	924.0894775390625	-274.2308654785156	1168.98779296875	1088.151123046875	-206.9723358154297	1073.476318359375	764.1885375976562	-357.9678649902344	1099.981567382812	857.0105590820312	-366.7739562988281	1157.588134765625	845.0081176757812	-311.8644104003906	878.7489624023438	1661.454467773438	-121.8692626953125	683.2391357421875	1710.021484375	-208.3173980712891	800.2423095703125	1724.505615234375	-264.9810485839844	760.0602416992188	1652.124389648438	-53.46854782104492	712.8326416015625	969.5682373046875	-56.7877311706543	1024.947631835938	1011.866027832031	-249.3955535888672	939.6992797851562	1041.291748046875	-295.2262268066406	704.6984252929688	1012.465148925781	-192.4634399414062	808.868408203125	479.2705993652344	-160.7386016845703	761.1581420898438	616.7122192382812	-130.8010711669922	931.8345947265625	33.86470413208008	-139.9819030761719	858.314697265625	253.4592895507812	-151.4366760253906	845.8994140625	38.19759368896484	-342.586669921875	914.9796752929688	37.47299575805664	-324.8630676269531	846.5166015625	33.46158218383789	-216.6157989501953	1016.021057128906	38.46328735351562	-127.4934158325195	959.3792724609375	540.3514404296875	-425.4967346191406	997.4017333984375	807.4833374023438	-365.2970581054688	1101.509643554688	95.65229797363281	-233.1998291015625	968.4729614257812	415.5353393554688	-412.316162109375	1022.315734863281	58.8991813659668	-432.5653076171875	986.9908447265625	61.26820755004883	-372.9994506835938	1108.59375	64.98451995849609	-343.0817565917969	1046.421875	105.7155303955078	-170.6476745605469	
